<?xml version="1.0" encoding="UTF-8" standalone="no"?>
<!-- Created with Inkscape (http://www.inkscape.org/) -->

<svg
   width="75.898399mm"
   height="35.277843mm"
   viewBox="0 0 75.898399 35.277843"
   version="1.1"
   id="svg1"
   xmlns="http://www.w3.org/2000/svg"
   xmlns:svg="http://www.w3.org/2000/svg">
  <defs
     id="defs1" />
  <g
     id="layer1"
     transform="translate(-143.13959,-223.30832)">
    <path
       id="path115"
       d="m 156.91006,256.24478 v -5.10892 h 3.07823 v 5.10892 h -3.07823"
       style="fill:#ffffff;fill-opacity:1;fill-rule:nonzero;stroke:none;stroke-width:0.0352777" />
    <path
       id="path116"
       d="m 156.03044,251.13586 v -1.53953 h -0.17914 c -1.35297,-0.005 -2.39021,-0.46143 -3.1247,-1.19062 -0.72968,-0.73519 -1.18607,-1.77271 -1.19132,-3.12455 v -1.86585 h 1.35255 l -0.0262,-0.0579 c -0.41575,-0.96203 -0.63803,-1.98931 -0.65183,-3.02013 h -3.7524 v 4.94383 c -0.005,2.07539 0.75173,3.96522 2.09257,5.30048 1.3316,1.33668 3.21356,2.09338 5.28105,2.09338 h 0.0202 0.17914 v -1.53916"
       style="fill:#ffffff;fill-opacity:1;fill-rule:nonzero;stroke:none;stroke-width:0.0352777" />
    <path
       id="path117"
       d="m 157.34828,243.08864 c -0.82106,-0.90664 -1.17892,-1.88983 -1.18237,-2.85609 0.004,-1.03469 0.41437,-2.09091 1.36729,-3.05082 l 1.3195,-1.31939 1.31938,1.31939 c 0.84597,0.85231 1.26224,1.78188 1.34868,2.71145 0.877,-0.28892 1.8168,-0.4378 2.78306,-0.43568 h 0.26776 c -0.18592,-1.61925 -0.95145,-3.18664 -2.22391,-4.45241 l -3.49497,-3.49603 -3.49585,3.49603 c -1.47105,1.46403 -2.27267,3.33481 -2.26851,5.22746 -0.004,1.89301 0.79746,3.76414 2.26851,5.22852 l 0.79004,0.79023 c 0.1874,-1.14583 0.59598,-2.22356 1.20139,-3.16266"
       style="fill:#ffffff;fill-opacity:1;fill-rule:nonzero;stroke:none;stroke-width:0.0352777" />
    <path
       id="path118"
       d="m 164.30382,240.33733 c -2.07575,-0.005 -3.96522,0.75177 -5.30119,2.09268 -1.34102,1.33596 -2.09713,3.2265 -2.093,5.30119 v 4.94382 h 3.0783 v -3.07869 -0.24518 -1.61995 c 0.005,-1.35255 0.46179,-2.39007 1.19134,-3.12455 0.73448,-0.7299 1.77129,-1.18569 3.12455,-1.19134 h 1.86619 v 1.86585 c -0.005,1.35184 -0.46178,2.38936 -1.19168,3.12455 -0.73448,0.72919 -1.77165,1.18604 -3.12491,1.19062 h -0.98601 v 3.07869 h 0.98601 0.0205 c 2.06728,0 3.94935,-0.7567 5.28073,-2.09338 1.34126,-1.33526 2.09797,-3.22509 2.09303,-5.30048 v -4.94383 h -4.94383"
       style="fill:#ffffff;fill-opacity:1;fill-rule:nonzero;stroke:none;stroke-width:0.0352777" />
    <path
       id="path119"
       d="m 151.02223,258.45317 c -4.68905,-2.54317 -7.88222,-7.38716 -7.88264,-12.95717 9.5e-4,-5.53191 3.14991,-10.34627 7.78866,-12.90532 v -5.74357 l -1.76982,-1.77024 c -0.42537,-0.42439 -0.20517,-0.89359 0.21996,-1.31939 0.42538,-0.4251 0.89461,-0.64488 1.31974,-0.21978 l 2.08884,2.08915 c 0.20309,0.20179 0.31901,0.48295 0.31901,0.76976 v 6.85271 c 0,0.41345 -0.234,0.79198 -0.60427,0.97508 -4.28819,2.13465 -7.1851,6.38739 -7.18457,11.2716 -2.4e-4,4.71628 2.69889,8.84237 6.74455,11.04441 0.52874,0.28646 0.50479,0.94791 0.21773,1.47602 -0.19801,0.36372 -0.3521,0.56974 -0.73864,0.56974 -0.17498,0 -0.35345,-0.0434 -0.51855,-0.133"
       style="fill:#ffffff;fill-opacity:1;fill-rule:nonzero;stroke:none;stroke-width:0.0352777" />
    <path
       id="path120"
       d="m 165.15895,258.01643 c -0.28751,-0.52811 -0.31185,-1.18956 0.21696,-1.47602 4.04566,-2.20204 6.74476,-6.32813 6.74476,-11.04441 7.9e-4,-4.8828 -2.89701,-9.13695 -7.18432,-11.2716 -0.1083,-0.0529 -0.20003,-0.11924 -0.28575,-0.20462 h -2.6e-4 c -0.20285,-0.2032 -0.31892,-0.48295 -0.31892,-0.77046 v -6.85271 c 0,-0.28681 0.11607,-0.56797 0.31892,-0.76976 l 2.08915,-2.08915 h 2.6e-4 c 0.4251,-0.4251 0.89429,-0.20532 1.31974,0.21978 0.42545,0.4258 0.64558,0.895 0.22013,1.31939 l -1.77024,1.77024 v 5.74357 c 4.63868,2.55905 7.78758,7.37341 7.78899,12.90532 -2.7e-4,5.57001 -3.1937,10.414 -7.88282,12.95788 -0.1651,0.0896 -0.34255,0.13229 -0.51823,0.13229 -0.387,0 -0.54116,-0.20602 -0.73837,-0.56974"
       style="fill:#ffffff;fill-opacity:1;fill-rule:nonzero;stroke:none;stroke-width:0.0352777" />
    <path
       id="path121"
       d="m 153.55507,256.27865 h 10.32753 c 1.00013,-0.43074 1.92899,-0.98178 2.76719,-1.63371 H 150.7877 c 0.83827,0.65193 1.7676,1.20297 2.76737,1.63371"
       style="fill:#ffffff;fill-opacity:1;fill-rule:nonzero;stroke:none;stroke-width:0.0352777" />
    <path
       id="path122"
       d="m 186.14817,255.87013 c 0,0.084 -0.0215,0.1584 -0.0628,0.22155 -0.042,0.0621 -0.11783,0.11536 -0.22049,0.14675 -0.10513,0.0374 -0.24447,0.072 -0.41945,0.0967 -0.17604,0.024 -0.39617,0.0399 -0.65793,0.0399 -0.24907,0 -0.46708,-0.0159 -0.64629,-0.0399 -0.17921,-0.0247 -0.32174,-0.0593 -0.4251,-0.0967 -0.10407,-0.0314 -0.17956,-0.0847 -0.22119,-0.14675 -0.0413,-0.0632 -0.0617,-0.13758 -0.0617,-0.22155 v -19.59715 c 0,-0.0829 0.0226,-0.15911 0.0737,-0.2212 0.0455,-0.0621 0.12418,-0.109 0.23178,-0.14675 0.11359,-0.0381 0.25541,-0.0723 0.42474,-0.0974 0.17604,-0.024 0.38135,-0.0399 0.62407,-0.0399 0.26176,0 0.48189,0.0159 0.65793,0.0399 0.17498,0.0251 0.31432,0.0593 0.41945,0.0974 0.10266,0.0377 0.1785,0.0847 0.22049,0.14675 0.0413,0.0621 0.0628,0.13829 0.0628,0.2212 v 19.59715"
       style="fill:#ffffff;fill-opacity:1;fill-rule:nonzero;stroke:none;stroke-width:0.0352777" />
    <path
       id="path123"
       d="m 202.23025,255.16246 c 0,0.18662 -0.007,0.35137 -0.0286,0.49248 -0.0272,0.14217 -0.0582,0.26106 -0.11289,0.35772 -0.055,0.0963 -0.11607,0.16263 -0.18168,0.2039 -0.0663,0.0413 -0.14394,0.0614 -0.22684,0.0614 h -9.79911 c -0.242,0 -0.47413,-0.0808 -0.68544,-0.24342 -0.21767,-0.16263 -0.32244,-0.44768 -0.32244,-0.86184 v -18.20333 c 0,-0.4131 0.10477,-0.6985 0.32244,-0.86113 0.21131,-0.16193 0.44344,-0.24271 0.68544,-0.24271 h 9.68587 c 0.0825,0 0.16016,0.0208 0.23177,0.0607 0.067,0.0434 0.12312,0.109 0.1651,0.20461 0.0416,0.0974 0.0783,0.21519 0.10266,0.35701 0.0236,0.14252 0.0388,0.31362 0.0388,0.52705 0,0.18838 -0.0152,0.35771 -0.0388,0.49883 -0.0243,0.14216 -0.061,0.25223 -0.10266,0.34678 -0.042,0.0861 -0.0981,0.15628 -0.1651,0.19826 -0.0716,0.0409 -0.14922,0.0614 -0.23177,0.0614 h -7.98583 v 6.40433 h 6.85235 c 0.0825,0 0.15981,0.0229 0.22684,0.0744 0.0653,0.0448 0.12418,0.10901 0.17639,0.19156 0.0444,0.0896 0.0801,0.20003 0.10089,0.35137 0.0205,0.14675 0.0279,0.32209 0.0279,0.52246 0,0.18662 -0.007,0.34855 -0.0279,0.48648 -0.0208,0.13829 -0.0564,0.24518 -0.10089,0.32915 -0.0522,0.0882 -0.11113,0.14957 -0.17639,0.18062 -0.067,0.0385 -0.14429,0.0572 -0.22684,0.0572 h -6.85235 v 7.30567 h 8.09907 c 0.0829,0 0.16051,0.0208 0.22684,0.0621 0.0656,0.0413 0.12664,0.11148 0.18168,0.19826 0.0547,0.0931 0.0857,0.20356 0.11289,0.34537 0.0212,0.14182 0.0286,0.31962 0.0286,0.5334"
       style="fill:#ffffff;fill-opacity:1;fill-rule:nonzero;stroke:none;stroke-width:0.0352777" />
    <path
       id="path124"
       d="m 216.1879,250.58305 c 0,-0.60819 -0.0984,-1.14723 -0.29527,-1.60866 -0.19544,-0.46391 -0.47872,-0.8502 -0.84843,-1.16805 -0.37571,-0.31221 -0.84138,-0.55245 -1.403,-0.71438 -0.56268,-0.16756 -1.26788,-0.25011 -2.11596,-0.25011 h -3.24309 v 7.19807 h 3.93206 c 0.62124,0 1.16205,-0.0759 1.62419,-0.22119 0.46285,-0.14464 0.86748,-0.36442 1.22273,-0.65722 0.34855,-0.28681 0.62689,-0.6477 0.82656,-1.07774 0.20002,-0.43392 0.30021,-0.93416 0.30021,-1.50072 z m -1.23578,-9.29463 c 0,-0.49072 -0.066,-0.93733 -0.20426,-1.33668 -0.13723,-0.40181 -0.34819,-0.74013 -0.64452,-1.02129 -0.28999,-0.27905 -0.68016,-0.4893 -1.14794,-0.64064 -0.4699,-0.145 -1.09432,-0.22049 -1.8736,-0.22049 h -2.79965 v 6.61388 h 3.08258 c 0.70414,0 1.26894,-0.0945 1.70356,-0.27834 0.42721,-0.18345 0.78564,-0.42792 1.06962,-0.74154 0.28258,-0.30798 0.48789,-0.67169 0.62159,-1.08867 0.12842,-0.41134 0.19262,-0.84455 0.19262,-1.28623 z m 4.08587,9.13624 c 0,0.64135 -0.0808,1.23754 -0.24376,1.77905 -0.16228,0.54293 -0.38912,1.0287 -0.6851,1.45592 -0.29139,0.43533 -0.64876,0.80821 -1.0668,1.14018 -0.41134,0.32455 -0.88371,0.59407 -1.40441,0.81526 -0.51611,0.2219 -1.07456,0.39124 -1.67181,0.49954 -0.59161,0.11289 -1.27388,0.16334 -2.04012,0.16334 h -5.33329 c -0.24201,0 -0.47378,-0.0808 -0.68545,-0.24342 -0.21731,-0.16263 -0.32243,-0.44768 -0.32243,-0.86184 v -18.20333 c 0,-0.4131 0.10512,-0.6985 0.32243,-0.86113 0.21167,-0.16193 0.44344,-0.24271 0.68545,-0.24271 h 4.63585 c 1.22273,0 2.22285,0.11112 2.99755,0.34466 0.7807,0.2286 1.4284,0.56656 1.95087,1.0093 0.51964,0.44168 0.90946,0.9839 1.17863,1.62701 0.26211,0.64135 0.39088,1.36701 0.39088,2.17523 0,0.48436 -0.0589,0.9465 -0.17004,1.38818 -0.11783,0.44309 -0.29105,0.84949 -0.51576,1.2252 -0.22543,0.36935 -0.508,0.70626 -0.84985,1.00259 -0.3429,0.29069 -0.73801,0.53305 -1.18004,0.72602 0.55951,0.10406 1.08091,0.29845 1.56528,0.57185 0.48295,0.27975 0.90593,0.63747 1.26823,1.06468 0.36372,0.43533 0.64911,0.94051 0.86219,1.52012 0.20744,0.57432 0.3115,1.2125 0.3115,1.9043"
       style="fill:#ffffff;fill-opacity:1;fill-rule:nonzero;stroke:none;stroke-width:0.0352777" />
  </g>
</svg>
